<mxfile host="app.diagrams.net" modified="2023-10-05T22:17:25.668Z" agent="Mozilla/5.0 (Windows NT 10.0; Win64; x64) AppleWebKit/537.36 (KHTML, like Gecko) Chrome/116.0.0.0 Safari/537.36 OPR/102.0.0.0" etag="SKBrBDEqQzBRcxFo9w4G" version="22.0.0" type="google">
  <diagram name="Page-1" id="9sPXsgKRLQA0uqA89Rh5">
    <mxGraphModel grid="1" page="1" gridSize="10" guides="1" tooltips="1" connect="1" arrows="1" fold="1" pageScale="1" pageWidth="827" pageHeight="1169" math="0" shadow="0">
      <root>
        <mxCell id="0" />
        <mxCell id="1" parent="0" />
        <mxCell id="T2MEmUB-2scd1BDm0A1Y-1" value="" style="rounded=0;whiteSpace=wrap;html=1;" vertex="1" parent="1">
          <mxGeometry x="100" y="20" width="620" height="510" as="geometry" />
        </mxCell>
        <object label="Paciente" Paciente="" id="T2MEmUB-2scd1BDm0A1Y-2">
          <mxCell style="shape=umlActor;verticalLabelPosition=bottom;verticalAlign=top;html=1;" vertex="1" parent="1">
            <mxGeometry x="40" y="110" width="30" height="60" as="geometry" />
          </mxCell>
        </object>
        <mxCell id="T2MEmUB-2scd1BDm0A1Y-3" value="Convênio" style="shape=umlActor;verticalLabelPosition=bottom;verticalAlign=top;html=1;" vertex="1" parent="1">
          <mxGeometry x="740" y="360" width="30" height="60" as="geometry" />
        </mxCell>
        <mxCell id="T2MEmUB-2scd1BDm0A1Y-4" value="SmartWatch" style="shape=umlActor;verticalLabelPosition=bottom;verticalAlign=top;html=1;" vertex="1" parent="1">
          <mxGeometry x="740" y="60" width="30" height="60" as="geometry" />
        </mxCell>
        <mxCell id="T2MEmUB-2scd1BDm0A1Y-16" value="Médico" style="shape=umlActor;verticalLabelPosition=bottom;verticalAlign=top;html=1;" vertex="1" parent="1">
          <mxGeometry x="740" y="210" width="30" height="60" as="geometry" />
        </mxCell>
        <mxCell id="T2MEmUB-2scd1BDm0A1Y-19" value="Obter consentimento na utilização dos dados" style="ellipse;whiteSpace=wrap;html=1;" vertex="1" parent="1">
          <mxGeometry x="140" y="60" width="140" height="70" as="geometry" />
        </mxCell>
        <mxCell id="T2MEmUB-2scd1BDm0A1Y-21" value="" style="endArrow=none;html=1;rounded=0;entryX=0.035;entryY=0.648;entryDx=0;entryDy=0;entryPerimeter=0;" edge="1" parent="1" target="T2MEmUB-2scd1BDm0A1Y-19">
          <mxGeometry width="50" height="50" relative="1" as="geometry">
            <mxPoint x="80" y="130" as="sourcePoint" />
            <mxPoint x="150" y="120" as="targetPoint" />
          </mxGeometry>
        </mxCell>
        <mxCell id="T2MEmUB-2scd1BDm0A1Y-23" value="Visualizar resultados exames" style="ellipse;whiteSpace=wrap;html=1;" vertex="1" parent="1">
          <mxGeometry x="140" y="140" width="140" height="70" as="geometry" />
        </mxCell>
        <mxCell id="T2MEmUB-2scd1BDm0A1Y-24" value="" style="endArrow=none;html=1;rounded=0;entryX=0;entryY=0.5;entryDx=0;entryDy=0;" edge="1" parent="1" target="T2MEmUB-2scd1BDm0A1Y-23">
          <mxGeometry width="50" height="50" relative="1" as="geometry">
            <mxPoint x="80" y="140" as="sourcePoint" />
            <mxPoint x="145" y="170" as="targetPoint" />
          </mxGeometry>
        </mxCell>
        <mxCell id="T2MEmUB-2scd1BDm0A1Y-25" value="Associar convênio médico" style="ellipse;whiteSpace=wrap;html=1;" vertex="1" parent="1">
          <mxGeometry x="140" y="300" width="140" height="70" as="geometry" />
        </mxCell>
        <mxCell id="T2MEmUB-2scd1BDm0A1Y-26" value="" style="endArrow=none;html=1;rounded=0;entryX=0.063;entryY=0.238;entryDx=0;entryDy=0;entryPerimeter=0;" edge="1" parent="1" target="T2MEmUB-2scd1BDm0A1Y-25">
          <mxGeometry width="50" height="50" relative="1" as="geometry">
            <mxPoint x="80" y="160" as="sourcePoint" />
            <mxPoint x="140" y="305" as="targetPoint" />
          </mxGeometry>
        </mxCell>
        <mxCell id="T2MEmUB-2scd1BDm0A1Y-27" value="Realizar exame" style="ellipse;whiteSpace=wrap;html=1;" vertex="1" parent="1">
          <mxGeometry x="140" y="220" width="140" height="70" as="geometry" />
        </mxCell>
        <mxCell id="T2MEmUB-2scd1BDm0A1Y-28" value="" style="endArrow=none;html=1;rounded=0;entryX=0.049;entryY=0.276;entryDx=0;entryDy=0;entryPerimeter=0;" edge="1" parent="1" target="T2MEmUB-2scd1BDm0A1Y-27">
          <mxGeometry width="50" height="50" relative="1" as="geometry">
            <mxPoint x="80" y="150" as="sourcePoint" />
            <mxPoint x="140" y="185" as="targetPoint" />
          </mxGeometry>
        </mxCell>
        <mxCell id="T2MEmUB-2scd1BDm0A1Y-29" value="Medir oxigenação" style="ellipse;whiteSpace=wrap;html=1;" vertex="1" parent="1">
          <mxGeometry x="440" y="30" width="140" height="70" as="geometry" />
        </mxCell>
        <mxCell id="T2MEmUB-2scd1BDm0A1Y-30" value="" style="endArrow=none;html=1;rounded=0;exitX=0.996;exitY=0.41;exitDx=0;exitDy=0;exitPerimeter=0;" edge="1" parent="1" source="T2MEmUB-2scd1BDm0A1Y-29">
          <mxGeometry width="50" height="50" relative="1" as="geometry">
            <mxPoint x="590" y="60" as="sourcePoint" />
            <mxPoint x="730" y="90" as="targetPoint" />
          </mxGeometry>
        </mxCell>
        <mxCell id="T2MEmUB-2scd1BDm0A1Y-31" value="Eletrocardiograma" style="ellipse;whiteSpace=wrap;html=1;" vertex="1" parent="1">
          <mxGeometry x="440" y="105" width="140" height="70" as="geometry" />
        </mxCell>
        <mxCell id="T2MEmUB-2scd1BDm0A1Y-32" value="" style="endArrow=none;html=1;rounded=0;exitX=0.963;exitY=0.338;exitDx=0;exitDy=0;exitPerimeter=0;" edge="1" parent="1" source="T2MEmUB-2scd1BDm0A1Y-31">
          <mxGeometry width="50" height="50" relative="1" as="geometry">
            <mxPoint x="580" y="110" as="sourcePoint" />
            <mxPoint x="731" y="110" as="targetPoint" />
          </mxGeometry>
        </mxCell>
        <mxCell id="T2MEmUB-2scd1BDm0A1Y-39" value="Análise cotidiana" style="ellipse;whiteSpace=wrap;html=1;" vertex="1" parent="1">
          <mxGeometry x="480" y="370" width="140" height="70" as="geometry" />
        </mxCell>
        <mxCell id="T2MEmUB-2scd1BDm0A1Y-40" value="Análise em casos graves" style="ellipse;whiteSpace=wrap;html=1;" vertex="1" parent="1">
          <mxGeometry x="480" y="210" width="140" height="70" as="geometry" />
        </mxCell>
        <mxCell id="T2MEmUB-2scd1BDm0A1Y-43" value="" style="endArrow=none;html=1;rounded=0;exitX=0.977;exitY=0.362;exitDx=0;exitDy=0;exitPerimeter=0;" edge="1" parent="1" source="T2MEmUB-2scd1BDm0A1Y-40" target="T2MEmUB-2scd1BDm0A1Y-16">
          <mxGeometry width="50" height="50" relative="1" as="geometry">
            <mxPoint x="640" y="250" as="sourcePoint" />
            <mxPoint x="690" y="200" as="targetPoint" />
          </mxGeometry>
        </mxCell>
        <mxCell id="T2MEmUB-2scd1BDm0A1Y-44" value="" style="endArrow=none;html=1;rounded=0;exitX=0.992;exitY=0.371;exitDx=0;exitDy=0;exitPerimeter=0;" edge="1" parent="1" source="T2MEmUB-2scd1BDm0A1Y-39">
          <mxGeometry width="50" height="50" relative="1" as="geometry">
            <mxPoint x="630" y="410" as="sourcePoint" />
            <mxPoint x="730" y="400" as="targetPoint" />
          </mxGeometry>
        </mxCell>
        <mxCell id="T2MEmUB-2scd1BDm0A1Y-47" value="&amp;lt;&amp;lt;include&amp;gt;&amp;gt;" style="html=1;verticalAlign=bottom;labelBackgroundColor=none;endArrow=open;endFill=0;dashed=1;rounded=0;exitX=0.973;exitY=0.676;exitDx=0;exitDy=0;exitPerimeter=0;entryX=0.044;entryY=0.314;entryDx=0;entryDy=0;entryPerimeter=0;" edge="1" parent="1" source="T2MEmUB-2scd1BDm0A1Y-27" target="T2MEmUB-2scd1BDm0A1Y-39">
          <mxGeometry width="160" relative="1" as="geometry">
            <mxPoint x="334" y="270" as="sourcePoint" />
            <mxPoint x="494" y="270" as="targetPoint" />
          </mxGeometry>
        </mxCell>
        <mxCell id="T2MEmUB-2scd1BDm0A1Y-49" value="&amp;lt;&amp;lt;include&amp;gt;&amp;gt;" style="html=1;verticalAlign=bottom;labelBackgroundColor=none;endArrow=open;endFill=0;dashed=1;rounded=0;exitX=0.458;exitY=-0.038;exitDx=0;exitDy=0;exitPerimeter=0;entryX=0.444;entryY=1.029;entryDx=0;entryDy=0;entryPerimeter=0;" edge="1" parent="1" source="T2MEmUB-2scd1BDm0A1Y-39" target="T2MEmUB-2scd1BDm0A1Y-40">
          <mxGeometry width="160" relative="1" as="geometry">
            <mxPoint x="540" y="320" as="sourcePoint" />
            <mxPoint x="700" y="320" as="targetPoint" />
          </mxGeometry>
        </mxCell>
        <mxCell id="T2MEmUB-2scd1BDm0A1Y-50" value="&amp;lt;&amp;lt;extend&amp;gt;&amp;gt;" style="html=1;verticalAlign=bottom;labelBackgroundColor=none;endArrow=open;endFill=0;dashed=1;rounded=0;exitX=1.02;exitY=0.362;exitDx=0;exitDy=0;exitPerimeter=0;entryX=0.015;entryY=0.619;entryDx=0;entryDy=0;entryPerimeter=0;" edge="1" parent="1" source="T2MEmUB-2scd1BDm0A1Y-27" target="T2MEmUB-2scd1BDm0A1Y-29">
          <mxGeometry width="160" relative="1" as="geometry">
            <mxPoint x="280" y="239.58" as="sourcePoint" />
            <mxPoint x="440" y="239.58" as="targetPoint" />
          </mxGeometry>
        </mxCell>
        <mxCell id="T2MEmUB-2scd1BDm0A1Y-51" value="&amp;lt;&amp;lt;extend&amp;gt;&amp;gt;" style="html=1;verticalAlign=bottom;labelBackgroundColor=none;endArrow=open;endFill=0;dashed=1;rounded=0;exitX=1;exitY=0.5;exitDx=0;exitDy=0;entryX=0.096;entryY=0.786;entryDx=0;entryDy=0;entryPerimeter=0;" edge="1" parent="1" source="T2MEmUB-2scd1BDm0A1Y-27" target="T2MEmUB-2scd1BDm0A1Y-31">
          <mxGeometry width="160" relative="1" as="geometry">
            <mxPoint x="340" y="230" as="sourcePoint" />
            <mxPoint x="500" y="230" as="targetPoint" />
          </mxGeometry>
        </mxCell>
      </root>
    </mxGraphModel>
  </diagram>
</mxfile>
